<svg xmlns="http://www.w3.org/2000/svg" width="64" height="64" viewBox="0 0 640 640" shape-rendering="geometricPrecision" text-rendering="geometricPrecision" image-rendering="optimizeQuality" fill-rule="evenodd" fill="#fff" clip-rule="evenodd"><path d="M320 0c43.075 0 78.013 34.937 78.013 78.013 0 43.075-34.938 78-78.013 78s-78.013-34.925-78.013-78C241.987 34.937 276.925 0 320 0zm0 483.986c43.075 0 78.013 34.937 78.013 78.013 0 43.075-34.938 78-78.013 78s-78.013-34.925-78.013-78c0-43.076 34.938-78.013 78.013-78.013zm0-241.987c43.075 0 78.013 34.937 78.013 78.001 0 43.075-34.938 78.013-78.013 78.013S241.987 363.075 241.987 320c0-43.063 34.938-78.001 78.013-78.001z"/></svg>